<?xml version="1.0" encoding="UTF-8"?>
<svg id="a" data-name="Layer 1" xmlns="http://www.w3.org/2000/svg" width="3.93in" height=".48in" viewBox="0 0 283.04 34.68">
  <path d="M20.85,3.12c3.21,0,6.04.17,8.78.64.84.12.93.25,1.05,1.09.38,2.54.68,5.65.68,8.27,0,.34-.17.42-1.14.42s-1.09-.09-1.22-.42c-.84-2.06-2.11-4.35-3.88-6.12-1.44-1.44-2.91-2.02-5.45-2.02-4.26,0-7.76,2.82-7.76,9.49s2.28,13.88,5.27,16.88c1.1,1.1,2.19,1.61,3.63,1.61,1.52,0,2.95-.64,4.47-2.15,1.78-1.77,3.38-5.02,4.26-7.55.12-.34.25-.42,1.22-.42s1.14.09,1.14.42c0,1.31-.63,6.12-1.18,9.71-.13.84-.26.97-1.1,1.09-2.95.46-6.33.64-10.21.64C7.98,34.68.14,28.81.14,19.11.14,8.86,10.01,3.12,20.85,3.12Z" fill="#090a0f"/>
  <path d="M62.81,33.41c0,.76-.08.88-.34.88-.97,0-3.71-.29-6.79-.29s-5.57.29-6.54.29c-.26,0-.34-.12-.34-.88s.08-.85.34-.93l1.14-.29c.42-.13.51-.17.51-.59v-8.31c0-3.92-.93-5.31-3.75-5.31-.29,0-.72.04-.93.12v13.5c0,.42.08.46.51.59l1.14.29c.25.08.34.17.34.93s-.08.88-.34.88c-.97,0-3.42-.29-6.5-.29s-5.86.29-6.83.29c-.25,0-.34-.12-.34-.88s.09-.89.34-.93l1.43-.29c.42-.09.51-.17.51-.59V9.87c0-.42-.08-.46-.51-.55l-1.43-.25c-.25-.04-.34-.12-.34-.8,0-.63.09-.72.34-.8,3.46-1.35,7.21-3.5,10.59-5.82.12-.08.21-.12.34-.12.29,0,1.1.34,1.1.63,0,.72-.34,3.59-.34,8.78v5.86c1.26-2.28,3.84-4.39,7.26-4.39,4.43,0,7.17,2.66,7.17,7.21v11.98c0,.42.08.51.51.59l1.44.29c.25.04.34.17.34.93Z" fill="#090a0f"/>
  <path d="M85.32,16.62c0,4.01-2.32,5.99-4.3,5.99-.76,0-1.39-.25-2.32-.89-1.01-.72-1.85-1.09-2.41-1.09-.21,0-.46.04-.55.12v10.88c0,.42.08.51.51.55l2.7.29c.25.04.34.17.34.93s-.09.88-.34.88c-.97,0-3.71-.29-8.06-.29-3.08,0-5.86.29-6.83.29-.25,0-.34-.08-.34-.88s.09-.89.34-.93l1.43-.29c.42-.09.51-.13.51-.55v-11.13c0-.42-.08-.46-.51-.55l-1.43-.25c-.25-.04-.34-.13-.34-.81,0-.63.09-.71.34-.8,3.46-1.35,6.75-3.42,10.12-5.82.12-.08.21-.12.34-.12.29,0,1.1.34,1.1.64,0,.67-.17,4.09-.17,6.83,1.26-4.09,3.63-7.21,6.2-7.21s3.67,1.9,3.67,4.22Z" fill="#090a0f"/>
  <path d="M85.81,33.41c0-.76.08-.89.34-.93l1.44-.29c.42-.09.51-.17.51-.59v-11.09c0-.42-.08-.46-.51-.55l-1.44-.25c-.25-.04-.34-.13-.34-.81,0-.63.08-.71.34-.8,3.46-1.35,7.22-3.5,10.59-5.82.12-.08.21-.12.34-.12.29,0,1.09.34,1.09.64,0,.71-.34,3.58-.34,8.77v10.04c0,.42.08.51.51.59l1.44.29c.25.04.34.17.34.93s-.08.88-.34.88c-.97,0-3.71-.29-6.79-.29s-5.91.29-6.84.29c-.25,0-.34-.12-.34-.88ZM88.68,5.4c0-2.74,2.02-4.85,4.85-4.85s4.85,2.11,4.85,4.85-2.02,4.85-4.85,4.85-4.85-2.11-4.85-4.85Z" fill="#090a0f"/>
  <path d="M102.97,26.2c.8,0,.93.09,1.05.42.85,2.11,1.52,3.71,2.24,4.94s1.64,1.61,2.91,1.61c1.86,0,2.95-.93,2.95-2.49s-.8-2.53-3.79-3.41c-5.15-1.52-6.41-3.88-6.41-7.51,0-4.18,3.75-7.55,10.63-7.55,1.52,0,3.08.17,4.68.38.85.12.93.21.93,1.05v5.02c0,.34-.08.42-.89.42s-.92-.08-1.05-.42l-1.31-3.33c-.42-1.01-1.14-1.61-2.53-1.61s-2.54.59-2.54,2.15c0,1.39.68,2.11,3.5,3.12,4.77,1.69,6.29,4.18,6.29,7.38,0,4.94-3.88,8.31-10.63,8.31-2.49,0-4.26-.29-6.46-.97-.84-.25-.92-.34-.92-1.18,0-1.56.21-3.96.42-5.91.05-.34.17-.42.93-.42Z" fill="#090a0f"/>
  <path d="M164.26,33.41c0,.76-.08.88-.34.88-.97,0-3.72-.29-6.79-.29s-5.57.29-6.54.29c-.25,0-.34-.12-.34-.88s.08-.85.34-.93l1.14-.29c.42-.13.51-.17.51-.59v-8.31c0-3.92-.93-5.31-3.75-5.31-.29,0-.81.04-1.06.12.09.46.13.97.13,1.52v11.98c0,.42.08.46.51.59l1.14.29c.25.08.34.17.34.93s-.08.88-.34.88c-.97,0-3.42-.29-6.5-.29s-5.57.29-6.54.29c-.26,0-.34-.12-.34-.88s.08-.85.34-.93l1.14-.29c.42-.13.51-.17.51-.59v-8.31c0-3.92-.93-5.31-3.75-5.31-.29,0-.72.04-.93.12v13.5c0,.42.08.46.51.59l1.14.29c.25.08.34.17.34.93s-.08.88-.34.88c-.97,0-3.42-.29-6.5-.29s-5.86.29-6.83.29c-.25,0-.34-.12-.34-.88s.09-.89.34-.93l1.43-.29c.42-.09.51-.17.51-.59v-11.09c0-.42-.08-.46-.51-.55l-1.43-.25c-.25-.04-.34-.13-.34-.81,0-.63.09-.71.34-.8,3.46-1.35,6.75-3.42,10.12-5.82.12-.08.21-.12.34-.12.29,0,1.1.34,1.1.64,0,.67-.17,2.06-.17,4.59,1.14-2.49,3.84-4.98,7.55-4.98s6.03,1.73,6.88,4.76c1.18-2.45,3.96-4.76,7.55-4.76,4.44,0,7.18,2.66,7.18,7.21v11.98c0,.42.08.51.51.59l1.44.29c.25.04.34.17.34.93Z" fill="#090a0f"/>
  <path d="M171.67,12.34c1.97,8.76,3.04,13.75,3.45,16.46h.08c.45-2.43,1.07-5.86,3.73-16.46h5.62c2.48,10.73,3.21,13.89,3.52,16.24h.04c.45-2.24,1.12-5.52,3.66-16.24h5.98l-6.48,21.83h-6.48c-1.79-8.28-2.83-12.65-3.32-15.52h-.04c-.35,2.74-1.53,7.69-3.45,15.52h-6.51l-6.2-21.83h6.39Z" fill="#090a0f"/>
  <path d="M220.95,23.22c0,6.61-3.95,11.46-10.87,11.46s-10.72-4.83-10.72-11.35,4.08-11.5,11.01-11.5c6.43,0,10.59,4.54,10.59,11.38ZM205.5,23.26c0,4.2,1.81,6.69,4.72,6.69s4.61-2.49,4.61-6.66c0-4.57-1.68-6.73-4.69-6.73-2.81,0-4.64,2.08-4.64,6.69Z" fill="#090a0f"/>
  <path d="M225.09,18.26c0-2.17,0-4.1-.05-5.92h5.93c.08.49.16,2.65.16,3.84.96-2.5,3.29-4.32,7.01-4.34v5.76c-4.38-.11-7.01,1.07-7.01,7.06v9.52h-6.04v-15.91Z" fill="#090a0f"/>
  <path d="M247.58,21.55c1.61-2.18,4.51-5.57,7.52-9.21h6.93l-7.61,8.25,8.33,13.59h-6.85l-5.53-9.71-2.79,2.71v7.01h-6.05V3.38h6.05v18.17Z" fill="#090a0f"/>
  <path d="M269.56,27.61c.46,1.74,1.88,2.72,4.14,2.72s3.05-.8,3.05-2.12c0-1.41-.94-1.95-4.07-2.72-7.11-1.75-8.28-3.95-8.28-7.04s2.27-6.61,8.85-6.61,8.87,3.62,9.06,6.57h-5.75c-.19-.81-.73-2.33-3.57-2.33-2,0-2.65.89-2.65,1.87,0,1.08.68,1.61,4.22,2.44,7.28,1.69,8.32,4.19,8.32,7.39,0,3.62-2.75,6.91-9.41,6.91s-9.36-3.2-9.85-7.07h5.94Z" fill="#090a0f"/>
</svg>