<?xml version="1.0" encoding="UTF-8"?>
<svg id="a" xmlns="http://www.w3.org/2000/svg" version="1.1" viewBox="0 0 99.17 37.76">
  <!-- Generator: Adobe Illustrator 30.2.1, SVG Export Plug-In . SVG Version: 2.1.1 Build 1)  -->
  <defs>
    <style>
      .st0 {
        fill: #ffbf00;
      }
    </style>
  </defs>
  <g>
    <g>
      <path d="M37.5,12.17c1.38,0,2.59.07,3.77.27.36.05.4.11.45.47.16,1.09.29,2.43.29,3.55,0,.14-.07.18-.49.18s-.47-.04-.53-.18c-.36-.89-.91-1.87-1.67-2.63-.62-.62-1.25-.87-2.34-.87-1.83,0-3.33,1.21-3.33,4.08s.98,5.96,2.27,7.25c.47.47.94.69,1.56.69s1.27-.27,1.92-.92c.76-.76,1.45-2.16,1.83-3.24.05-.15.11-.18.53-.18s.49.04.49.18c0,.56-.27,2.63-.51,4.17-.05.36-.11.42-.47.47-1.27.2-2.72.27-4.39.27-4.91,0-8.28-2.52-8.28-6.69,0-4.4,4.24-6.87,8.9-6.87Z"/>
      <path d="M55.54,25.18c0,.33-.04.38-.15.38-.42,0-1.59-.13-2.92-.13s-2.39.13-2.81.13c-.11,0-.15-.05-.15-.38s.04-.36.15-.4l.49-.13c.18-.05.22-.07.22-.25v-3.57c0-1.69-.4-2.28-1.61-2.28-.13,0-.31.02-.4.05v5.8c0,.18.04.2.22.25l.49.13c.11.04.15.07.15.4s-.04.38-.15.38c-.42,0-1.47-.13-2.79-.13s-2.52.13-2.94.13c-.11,0-.14-.05-.14-.38s.04-.38.14-.4l.62-.13c.18-.04.22-.07.22-.25v-9.33c0-.18-.04-.2-.22-.24l-.62-.11c-.11-.02-.14-.05-.14-.34,0-.27.04-.31.14-.34,1.49-.58,3.1-1.5,4.55-2.5.05-.04.09-.05.14-.05.13,0,.47.14.47.27,0,.31-.15,1.54-.15,3.77v2.52c.54-.98,1.65-1.89,3.12-1.89,1.9,0,3.08,1.14,3.08,3.1v5.15c0,.18.04.22.22.25l.62.13c.11.02.15.07.15.4h0Z"/>
      <path d="M65.22,17.97c0,1.72-1,2.57-1.85,2.57-.33,0-.6-.11-1-.38-.44-.31-.8-.47-1.03-.47-.09,0-.2.02-.24.05v4.68c0,.18.04.22.22.24l1.16.13c.11.02.14.07.14.4s-.04.38-.14.38c-.42,0-1.6-.13-3.46-.13-1.32,0-2.52.13-2.94.13-.11,0-.14-.04-.14-.38s.04-.38.14-.4l.62-.13c.18-.04.22-.05.22-.24v-4.78c0-.18-.04-.2-.22-.24l-.62-.11c-.11-.02-.14-.05-.14-.34,0-.27.04-.31.14-.34,1.49-.58,2.9-1.47,4.35-2.5.05-.04.09-.05.15-.05.13,0,.47.14.47.27,0,.29-.07,1.76-.07,2.94.54-1.76,1.56-3.1,2.66-3.1s1.58.82,1.58,1.81h0Z"/>
      <path d="M65.44,25.18c0-.33.04-.38.15-.4l.62-.13c.18-.04.22-.07.22-.25v-4.77c0-.18-.04-.2-.22-.24l-.62-.11c-.11-.02-.15-.05-.15-.34,0-.27.04-.31.15-.34,1.49-.58,3.1-1.5,4.55-2.5.05-.04.09-.05.14-.05.13,0,.47.14.47.27,0,.31-.15,1.54-.15,3.77v4.31c0,.18.04.22.22.25l.62.13c.11.02.15.07.15.4s-.04.38-.15.38c-.42,0-1.59-.13-2.92-.13s-2.54.13-2.94.13c-.11,0-.15-.05-.15-.38h0Z"/>
      <path d="M72.82,22.09c.34,0,.4.04.45.18.36.91.65,1.59.96,2.12.31.53.71.69,1.25.69.8,0,1.27-.4,1.27-1.07s-.34-1.09-1.63-1.47c-2.21-.65-2.75-1.67-2.75-3.23,0-1.79,1.61-3.24,4.57-3.24.65,0,1.32.07,2.01.16.36.05.4.09.4.45v2.16c0,.15-.04.18-.38.18s-.4-.04-.45-.18l-.56-1.43c-.18-.44-.49-.69-1.09-.69s-1.09.25-1.09.92c0,.6.29.91,1.5,1.34,2.05.72,2.7,1.79,2.7,3.17,0,2.12-1.67,3.57-4.57,3.57-1.07,0-1.83-.13-2.77-.42-.36-.11-.4-.14-.4-.51,0-.67.09-1.7.18-2.54.02-.15.07-.18.4-.18v.02Z"/>
      <path d="M99.16,25.18c0,.33-.04.38-.15.38-.42,0-1.59-.13-2.92-.13s-2.39.13-2.81.13c-.11,0-.15-.05-.15-.38s.04-.36.15-.4l.49-.13c.18-.05.22-.07.22-.25v-3.57c0-1.69-.4-2.28-1.61-2.28-.13,0-.34.02-.45.05.04.2.05.42.05.65v5.15c0,.18.04.2.22.25l.49.13c.11.04.15.07.15.4s-.04.38-.15.38c-.42,0-1.47-.13-2.79-.13s-2.39.13-2.81.13c-.11,0-.15-.05-.15-.38s.04-.36.15-.4l.49-.13c.18-.05.22-.07.22-.25v-3.57c0-1.69-.4-2.28-1.61-2.28-.13,0-.31.02-.4.05v5.8c0,.18.04.2.22.25l.49.13c.11.04.15.07.15.4s-.04.38-.15.38c-.42,0-1.47-.13-2.79-.13s-2.52.13-2.94.13c-.11,0-.14-.05-.14-.38s.04-.38.14-.4l.62-.13c.18-.04.22-.07.22-.25v-4.77c0-.18-.04-.2-.22-.24l-.62-.11c-.11-.02-.14-.05-.14-.34,0-.27.04-.31.14-.34,1.49-.58,2.9-1.47,4.35-2.5.05-.04.09-.05.15-.05.13,0,.47.14.47.27,0,.29-.07.89-.07,1.98.49-1.07,1.65-2.14,3.24-2.14s2.59.74,2.95,2.05c.51-1.05,1.7-2.05,3.24-2.05,1.9,0,3.08,1.14,3.08,3.1v5.15c0,.18.04.22.22.25l.62.13c.11.02.15.07.15.4h-.01Z"/>
    </g>
    <polygon class="st0" points="21.58 15.06 19.49 11.44 12.88 15.26 12.88 7.63 8.7 7.63 8.7 15.26 2.09 11.44 0 15.06 6.61 18.88 0 22.7 2.09 26.32 8.7 22.5 8.7 30.13 12.88 30.13 12.88 22.5 19.49 26.32 21.58 22.7 14.97 18.88 21.58 15.06"/>
  </g>
  <g>
    <path d="M69.68,29.9c0,1.48-.83,3.09-2.69,3.09-1.26,0-1.92-.85-1.92-2.03,0-1.49.89-3.15,2.67-3.15,1.28,0,1.94.84,1.94,2.08h0ZM65.81,30.94c0,.84.4,1.47,1.28,1.47,1.28,0,1.87-1.33,1.87-2.53,0-.88-.41-1.49-1.26-1.49-1.28,0-1.89,1.39-1.89,2.54h0Z"/>
    <path d="M70.8,32.46l-.41,1.91h-.67l.86-4.05c.11-.5.18-.85.21-1.08h.67c0,.08-.06.4-.1.61.25-.38.63-.68,1.23-.68.75,0,1.17.56,1.17,1.41,0,1.19-.69,2.43-1.96,2.43-.57,0-.88-.27-1-.53v-.02ZM73.06,30.64c0-.6-.28-.89-.74-.89-.66,0-1.11.65-1.26,1.36-.16.77.02,1.33.74,1.33.86,0,1.25-1.01,1.25-1.79h.01Z"/>
    <path d="M75.01,31.19c-.02.13-.03.21-.03.33,0,.58.27.93.77.93s.74-.28.9-.58h.7c-.23.57-.69,1.13-1.67,1.13s-1.38-.61-1.38-1.47c0-1.03.56-2.36,1.94-2.36,1.01,0,1.35.65,1.35,1.34,0,.24-.03.46-.09.7h-2.49v-.02ZM76.92,30.7c.02-.09.02-.17.02-.25,0-.47-.22-.75-.73-.75-.54,0-.92.37-1.09,1h1.8Z"/>
    <path d="M78.55,30.33c.08-.36.15-.75.21-1.09h.65c0,.09-.06.45-.13.76.27-.51.7-.83,1.28-.83l-.15.69c-.7.04-1.22.54-1.39,1.37l-.36,1.7h-.67l.55-2.6h0Z"/>
    <path d="M83.38,32.01c-.07.32-.15.77-.17.91h-.66c.01-.13.05-.35.09-.54-.18.28-.48.61-1.22.61s-1.02-.49-1.02-.93c0-1.05.97-1.29,1.72-1.36.37-.03.69-.03.88-.04l.04-.23c.07-.33.05-.76-.62-.76-.59,0-.75.31-.85.57h-.69c.13-.56.54-1.08,1.6-1.08.86,0,1.43.38,1.24,1.28l-.33,1.57h0ZM82.9,31.15c-.21,0-.44,0-.73.04-.59.07-1.06.23-1.06.77,0,.27.18.49.57.49.78,0,1.07-.61,1.21-1.24v-.06h.01Z"/>
    <path d="M84.53,29.23h.6l.23-1.05h.67l-.22,1.05h.77l-.12.54h-.77l-.45,2.16c-.07.32-.05.48.26.48.11,0,.24,0,.35-.03l-.12.52c-.18.06-.37.06-.54.06-.62,0-.79-.31-.66-.93l.48-2.26h-.6s.12-.54.12-.54Z"/>
    <path d="M87.27,29.23h.67l-.78,3.69h-.67s.78-3.69.78-3.69ZM87.61,27.61h.67l-.17.82h-.67l.17-.82Z"/>
    <path d="M91.74,30.7c0,.95-.54,2.3-1.99,2.3-.92,0-1.41-.58-1.41-1.49,0-1.02.62-2.34,1.97-2.34.85,0,1.42.54,1.42,1.54h.01ZM89.04,31.5c0,.6.28.94.78.94.85,0,1.22-1.03,1.22-1.78,0-.59-.26-.95-.79-.95-.82,0-1.21,1.03-1.21,1.79Z"/>
    <path d="M92.73,30.17c.07-.32.13-.63.18-.94h.66c-.01.11-.08.5-.1.6.2-.31.55-.67,1.22-.67.71,0,1.14.41.92,1.47l-.48,2.29h-.67l.48-2.28c.11-.53,0-.89-.54-.89-.64,0-1.02.58-1.17,1.32l-.39,1.86h-.67l.58-2.75h-.02Z"/>
    <path d="M96.75,31.81c.04.37.27.65.82.65.47,0,.71-.23.71-.56s-.23-.48-.74-.66c-.81-.28-1.06-.56-1.06-.99,0-.59.46-1.09,1.36-1.09.97,0,1.35.53,1.33,1.07h-.68c-.02-.25-.14-.55-.7-.55-.36,0-.63.17-.63.49,0,.25.21.36.72.54.79.28,1.1.59,1.1,1.11,0,.76-.63,1.18-1.51,1.18-.95,0-1.42-.48-1.41-1.19h.69Z"/>
  </g>
</svg>