<?xml version="1.0" encoding="UTF-8"?>
<svg id="a" data-name="Layer 1" xmlns="http://www.w3.org/2000/svg" width="1.58in" height=".48in" viewBox="0 0 114.03 34.58">
  <path d="M19.72,16.07c0-4.29.04-8.64.14-11.07h-.12c-.99,3.74-4.73,13.64-7.37,20.9h-2.74C7.63,20,3.76,8.89,2.73,4.95h-.1c.18,2.66.26,7.79.26,11.75v9.2H0V2.83h4.57c2.62,7.16,5.82,16.4,6.61,19.34h.06c.54-2.22,4.33-12.36,7.04-19.34h4.44v23.08h-2.99v-9.83Z" fill="#090a0f"/>
  <path d="M28.09,1.55h2.9v3.63h-2.9V1.55ZM28.09,9.08h2.9v16.82h-2.9V9.08Z" fill="#090a0f"/>
  <path d="M35.96,13.32c0-1.46,0-2.94-.03-4.24h2.82c.08.49.12,2.27.11,2.77.68-1.45,2.04-3.16,5.3-3.16s5.61,1.93,5.61,6.4v10.82h-2.9v-10.45c0-2.54-.99-4.25-3.56-4.25-3.17,0-4.45,2.41-4.45,5.79v8.9h-2.9v-12.58Z" fill="#090a0f"/>
  <path d="M54.71,1.55h2.9v3.63h-2.9V1.55ZM54.71,9.08h2.9v16.82h-2.9V9.08Z" fill="#090a0f"/>
  <path d="M63.81,21.09c.48,1.84,1.84,2.92,4.12,2.92,2.47,0,3.44-1.06,3.44-2.59s-.77-2.3-3.98-3.08c-4.81-1.17-5.81-2.64-5.81-4.92s1.75-4.73,6.07-4.73,6.12,2.51,6.34,4.86h-2.81c-.24-1.09-1.06-2.6-3.64-2.6-2.36,0-3.06,1.13-3.06,2.23,0,1.26.69,1.88,3.77,2.61,5.11,1.21,6.12,2.91,6.12,5.42,0,2.95-2.34,5.1-6.53,5.1s-6.49-2.2-6.92-5.21h2.89Z" fill="#090a0f"/>
  <path d="M75.79,9.08h2.9v-4.96h2.9v4.96h3.71v2.37h-3.71v9.85c0,1.63.4,2.47,1.92,2.47.4,0,1-.02,1.46-.14v2.19c-.71.27-1.71.31-2.52.31-2.61,0-3.77-1.35-3.77-4.15v-10.53h-2.9v-2.37Z" fill="#090a0f"/>
  <path d="M88.25,13.65c0-2.35-.02-3.67-.04-4.57h2.85c.05.47.09,1.79.09,3.44.88-2.28,2.89-3.75,5.66-3.83v2.89c-3.45.1-5.66,1.91-5.66,6.16v8.17h-2.9v-12.25Z" fill="#090a0f"/>
  <path d="M101.92,9.08c2.72,8.06,4.21,12.52,4.66,14.23h.03c.55-1.91,1.75-5.75,4.5-14.23h2.93l-6.05,17.59c-1.71,4.92-2.97,6.17-6.42,6.17-.53,0-1.16-.03-1.8-.11v-2.53c.43.06.92.09,1.39.09,2.13,0,2.94-.93,3.93-3.74l-6.3-17.47h3.14Z" fill="#090a0f"/>
</svg>