<?xml version="1.0" encoding="UTF-8"?>
<svg id="a" data-name="Layer 1" xmlns="http://www.w3.org/2000/svg" width="1.57in" height=".48in" viewBox="0 0 113.15 34.58">
  <path d="M3.11,19.48c.63,2.77,2.52,4.26,5.86,4.26,3.6,0,5.02-1.69,5.02-3.87,0-2.31-1.14-3.61-5.76-4.73C2.8,13.82.91,11.96.91,8.72c0-3.43,2.53-6.22,7.68-6.22,5.5,0,7.76,3.18,8.07,6.21h-3.11c-.42-2.05-1.7-3.74-5.07-3.74-2.81,0-4.38,1.27-4.38,3.46s1.3,3.02,5.35,4c6.58,1.6,7.74,4.17,7.74,7.13,0,3.72-2.76,6.64-8.4,6.64S.48,23.02,0,19.48h3.11Z" fill="#fff"/>
  <path d="M34.61,20.75c-.71,2.89-2.67,5.54-6.95,5.54-4.63,0-7.5-3.33-7.5-8.72,0-4.75,2.69-8.9,7.7-8.9s6.53,3.45,6.74,5.62h-2.88c-.42-1.71-1.49-3.2-3.92-3.2-2.97,0-4.66,2.55-4.66,6.37s1.64,6.4,4.56,6.4c2.1,0,3.33-1.12,4.02-3.13h2.89Z" fill="#fff"/>
  <path d="M40.98,1.55v10.01c.86-1.48,2.39-2.88,5.24-2.88,2.7,0,5.67,1.48,5.67,6.48v10.73h-2.89v-10.25c0-2.86-1.21-4.44-3.66-4.44-3.02,0-4.36,2-4.36,5.5v9.19h-2.9V1.55h2.9Z" fill="#fff"/>
  <path d="M71.29,17.46c0,4.85-2.77,8.84-7.92,8.84-4.82,0-7.73-3.73-7.73-8.78s2.85-8.83,7.92-8.83c4.67,0,7.73,3.5,7.73,8.77ZM58.63,17.49c0,3.69,1.84,6.38,4.87,6.38s4.81-2.55,4.81-6.37-1.72-6.39-4.87-6.39-4.8,2.54-4.8,6.38Z" fill="#fff"/>
  <path d="M89.72,17.46c0,4.85-2.77,8.84-7.92,8.84-4.82,0-7.73-3.73-7.73-8.78s2.85-8.83,7.92-8.83c4.67,0,7.73,3.5,7.73,8.77ZM77.06,17.49c0,3.69,1.84,6.38,4.87,6.38s4.8-2.55,4.8-6.37-1.72-6.39-4.87-6.39-4.8,2.54-4.8,6.38Z" fill="#fff"/>
  <path d="M93.5,25.9V1.55h2.9v24.35h-2.9Z" fill="#fff"/>
  <path d="M102.6,21.09c.48,1.84,1.85,2.92,4.13,2.92,2.47,0,3.44-1.06,3.44-2.59s-.77-2.3-3.98-3.08c-4.8-1.17-5.81-2.64-5.81-4.92s1.75-4.73,6.08-4.73,6.11,2.51,6.33,4.86h-2.81c-.24-1.09-1.06-2.6-3.65-2.6-2.35,0-3.05,1.13-3.05,2.23,0,1.26.69,1.88,3.77,2.61,5.1,1.21,6.12,2.91,6.12,5.42,0,2.95-2.34,5.1-6.53,5.1s-6.49-2.2-6.92-5.21h2.89Z" fill="#fff"/>
</svg>