<?xml version="1.0" encoding="UTF-8"?>
<svg id="a" data-name="Layer 1" xmlns="http://www.w3.org/2000/svg" width=".53in" height=".48in" viewBox="0 0 38.24 34.34">
  <path d="M2.71,25.66v-14.45H0v-2.37h2.71v-2.01C2.71,3.74,3.89.98,7.61.98c.62,0,1.45.09,1.86.22v2.46c-.4-.1-1.02-.15-1.48-.15-1.73,0-2.38,1.04-2.38,3.5v1.83h3.37v2.37h-3.37v14.45h-2.9Z" fill="#090a0f"/>
  <path d="M25.9,17.22c0,4.85-2.77,8.84-7.92,8.84-4.82,0-7.73-3.73-7.73-8.78s2.85-8.83,7.92-8.83c4.67,0,7.73,3.5,7.73,8.77ZM13.24,17.25c0,3.69,1.84,6.38,4.87,6.38s4.81-2.55,4.81-6.37-1.72-6.39-4.87-6.39-4.8,2.54-4.8,6.38Z" fill="#090a0f"/>
  <path d="M29.68,13.41c0-2.35-.03-3.67-.04-4.57h2.85c.05.47.09,1.79.09,3.44.88-2.28,2.89-3.75,5.67-3.83v2.89c-3.45.1-5.67,1.91-5.67,6.16v8.17h-2.9v-12.25Z" fill="#090a0f"/>
</svg>