<?xml version="1.0" encoding="UTF-8"?>
<svg id="a" data-name="Layer 1" xmlns="http://www.w3.org/2000/svg" width="1.79in" height=".48in" viewBox="0 0 129.03 34.68">
  <path d="M16.28,2.02c2.52,0,4.74.13,6.9.5.66.1.73.2.83.86.3,1.99.53,4.44.53,6.5,0,.26-.13.33-.9.33s-.86-.07-.96-.33c-.66-1.62-1.66-3.42-3.05-4.81-1.13-1.13-2.29-1.59-4.28-1.59-3.35,0-6.1,2.22-6.1,7.46s1.79,10.91,4.15,13.27c.86.86,1.72,1.26,2.85,1.26,1.19,0,2.32-.5,3.51-1.69,1.4-1.39,2.65-3.95,3.35-5.94.1-.26.2-.33.96-.33s.9.07.9.33c0,1.03-.5,4.81-.92,7.63-.1.66-.2.76-.86.86-2.32.37-4.98.5-8.03.5C6.17,26.83,0,22.22,0,14.59,0,6.53,7.76,2.02,16.28,2.02Z" fill="#090a0f"/>
  <path d="M49.27,25.84c0,.6-.06.69-.27.69-.76,0-2.91-.23-5.34-.23s-4.38.23-5.14.23c-.2,0-.26-.1-.26-.69s.06-.67.26-.73l.9-.23c.33-.1.4-.13.4-.47v-6.53c0-3.08-.73-4.18-2.95-4.18-.23,0-.56.03-.73.1v10.61c0,.33.06.37.4.47l.9.23c.19.06.26.13.26.73s-.07.69-.26.69c-.77,0-2.69-.23-5.11-.23s-4.61.23-5.37.23c-.2,0-.27-.1-.27-.69s.06-.7.27-.73l1.12-.23c.33-.07.4-.13.4-.47V7.33c0-.33-.06-.37-.4-.43l-1.12-.2c-.2-.03-.27-.1-.27-.63,0-.49.06-.56.27-.63,2.72-1.06,5.67-2.75,8.32-4.58.1-.06.17-.1.26-.1.23,0,.86.26.86.49,0,.56-.27,2.82-.27,6.9v4.61c.99-1.79,3.02-3.45,5.71-3.45,3.48,0,5.63,2.09,5.63,5.67v9.42c0,.33.07.4.4.47l1.13.23c.2.03.27.13.27.73Z" fill="#090a0f"/>
  <path d="M66.97,12.63c0,3.15-1.83,4.71-3.38,4.71-.6,0-1.1-.2-1.83-.7-.8-.56-1.46-.86-1.89-.86-.17,0-.37.03-.43.1v8.56c0,.33.06.4.4.43l2.12.23c.2.03.27.13.27.73s-.07.69-.27.69c-.76,0-2.92-.23-6.34-.23-2.42,0-4.61.23-5.37.23-.19,0-.26-.06-.26-.69s.07-.7.26-.73l1.13-.23c.33-.07.4-.1.4-.43v-8.75c0-.33-.06-.37-.4-.43l-1.13-.2c-.19-.03-.26-.1-.26-.63,0-.49.07-.56.26-.63,2.72-1.06,5.31-2.69,7.96-4.58.1-.06.17-.1.26-.1.23,0,.86.26.86.5,0,.53-.14,3.21-.14,5.37,1-3.21,2.86-5.67,4.88-5.67s2.89,1.49,2.89,3.32Z" fill="#090a0f"/>
  <path d="M67.35,25.84c0-.6.07-.7.27-.73l1.13-.23c.33-.07.4-.13.4-.47v-8.72c0-.33-.06-.37-.4-.43l-1.13-.2c-.2-.03-.27-.1-.27-.63,0-.49.07-.56.27-.63,2.72-1.06,5.67-2.75,8.32-4.58.1-.06.17-.1.27-.1.23,0,.86.26.86.5,0,.56-.27,2.82-.27,6.9v7.89c0,.33.07.4.4.47l1.12.23c.2.03.27.13.27.73s-.06.69-.27.69c-.76,0-2.91-.23-5.34-.23s-4.64.23-5.37.23c-.2,0-.27-.1-.27-.69ZM69.61,3.81c0-2.16,1.59-3.81,3.82-3.81s3.82,1.66,3.82,3.81-1.59,3.82-3.82,3.82-3.82-1.66-3.82-3.82Z" fill="#090a0f"/>
  <path d="M80.85,20.16c.63,0,.73.07.83.33.66,1.66,1.2,2.92,1.76,3.88s1.29,1.26,2.28,1.26c1.46,0,2.32-.73,2.32-1.96s-.63-1.99-2.98-2.68c-4.05-1.2-5.05-3.05-5.05-5.91,0-3.28,2.96-5.94,8.36-5.94,1.19,0,2.42.13,3.68.3.67.1.73.17.73.83v3.94c0,.27-.06.33-.7.33s-.73-.06-.83-.33l-1.03-2.62c-.33-.8-.9-1.26-1.99-1.26s-1.99.47-1.99,1.69c0,1.1.53,1.66,2.75,2.46,3.75,1.33,4.94,3.28,4.94,5.8,0,3.88-3.05,6.53-8.36,6.53-1.96,0-3.35-.23-5.08-.76-.66-.2-.73-.27-.73-.93,0-1.23.17-3.12.33-4.64.04-.26.13-.33.73-.33Z" fill="#090a0f"/>
  <path d="M129.02,25.84c0,.6-.06.69-.26.69-.77,0-2.92-.23-5.35-.23s-4.37.23-5.14.23c-.2,0-.26-.1-.26-.69s.06-.67.26-.73l.89-.23c.33-.1.4-.13.4-.47v-6.53c0-3.08-.73-4.18-2.95-4.18-.23,0-.63.03-.83.1.07.37.1.76.1,1.19v9.42c0,.33.07.37.4.47l.9.23c.2.06.27.13.27.73s-.06.69-.27.69c-.76,0-2.68-.23-5.11-.23s-4.38.23-5.14.23c-.2,0-.26-.1-.26-.69s.06-.67.26-.73l.9-.23c.33-.1.4-.13.4-.47v-6.53c0-3.08-.73-4.18-2.95-4.18-.23,0-.56.03-.73.1v10.61c0,.33.06.37.4.47l.9.23c.19.06.26.13.26.73s-.07.69-.26.69c-.77,0-2.69-.23-5.11-.23s-4.61.23-5.37.23c-.2,0-.27-.1-.27-.69s.06-.7.27-.73l1.12-.23c.33-.07.4-.13.4-.47v-8.72c0-.33-.06-.37-.4-.43l-1.12-.2c-.2-.03-.27-.1-.27-.63,0-.49.06-.56.27-.63,2.72-1.06,5.3-2.69,7.95-4.58.1-.06.17-.1.27-.1.23,0,.86.26.86.5,0,.53-.13,1.62-.13,3.61.9-1.96,3.02-3.91,5.94-3.91s4.74,1.36,5.4,3.75c.93-1.92,3.12-3.75,5.94-3.75,3.49,0,5.64,2.09,5.64,5.67v9.42c0,.33.06.4.4.47l1.13.23c.19.03.26.13.26.73Z" fill="#090a0f"/>
</svg>