<?xml version="1.0" encoding="UTF-8"?>
<svg id="a" data-name="Layer 1" xmlns="http://www.w3.org/2000/svg" width="1.28in" height=".48in" viewBox="0 0 92.45 34.34">
  <path d="M5.03,8.49c1.54,6.89,2.39,10.81,2.71,12.94h.06c.35-1.91.84-4.61,2.93-12.94h4.42c1.95,8.44,2.53,10.92,2.77,12.77h.03c.35-1.76.87-4.34,2.88-12.77h4.7l-5.09,17.17h-5.1c-1.42-6.51-2.22-9.94-2.62-12.2h-.03c-.28,2.15-1.2,6.04-2.72,12.2h-5.11L0,8.49h5.03Z" fill="#090a0f"/>
  <path d="M43.78,17.05c0,5.19-3.11,9.01-8.55,9.01s-8.44-3.8-8.44-8.92,3.21-9.04,8.66-9.04c5.05,0,8.32,3.57,8.32,8.95ZM31.62,17.08c0,3.3,1.42,5.26,3.71,5.26s3.62-1.96,3.62-5.23c0-3.59-1.31-5.29-3.68-5.29-2.21,0-3.64,1.63-3.64,5.26Z" fill="#090a0f"/>
  <path d="M47.03,13.15c0-1.71,0-3.22-.04-4.66h4.66c.06.38.12,2.09.12,3.02.76-1.97,2.59-3.4,5.51-3.41v4.53c-3.45-.09-5.51.84-5.51,5.55v7.48h-4.75v-12.51Z" fill="#090a0f"/>
  <path d="M64.71,15.74c1.27-1.71,3.54-4.38,5.91-7.24h5.45l-5.98,6.48,6.55,10.68h-5.38l-4.35-7.64-2.2,2.13v5.51h-4.75V1.45h4.75v14.29Z" fill="#090a0f"/>
  <path d="M81.99,20.5c.36,1.37,1.48,2.14,3.25,2.14s2.4-.63,2.4-1.67c0-1.11-.74-1.54-3.2-2.14-5.59-1.38-6.51-3.11-6.51-5.53s1.78-5.2,6.96-5.2,6.97,2.84,7.12,5.17h-4.52c-.15-.63-.57-1.83-2.81-1.83-1.57,0-2.08.7-2.08,1.47,0,.85.54,1.26,3.32,1.91,5.73,1.33,6.54,3.3,6.54,5.81,0,2.84-2.16,5.43-7.39,5.43s-7.37-2.52-7.74-5.56h4.67Z" fill="#090a0f"/>
</svg>