<?xml version="1.0" encoding="UTF-8"?>
<svg id="a" data-name="Layer 1" xmlns="http://www.w3.org/2000/svg" width="1.76in" height=".48in" viewBox="0 0 126.67 34.58">
  <path d="M0,2.83h8.85c4.88,0,7.15,2.57,7.15,5.76,0,2.68-1.54,4.43-3.31,5.03,1.61.51,4.07,2.14,4.07,5.53,0,4.35-3.32,6.76-7.69,6.76H0V2.83ZM8.27,12.42c3.34,0,4.65-1.32,4.65-3.57,0-2.04-1.47-3.5-4.18-3.5H3v7.07h5.27ZM3,23.37h5.7c2.89,0,4.91-1.36,4.91-4.24,0-2.51-1.61-4.19-5.5-4.19H3v8.42Z" fill="#090a0f"/>
  <path d="M34.12,21c0,1.64.02,3.91.04,4.9h-2.83c-.06-.44-.1-1.47-.11-2.52-.82,1.86-2.44,2.92-5.09,2.92-2.83,0-5.55-1.41-5.55-6.16v-11.06h2.88v10.44c0,2.21.69,4.25,3.49,4.25,3.09,0,4.28-1.71,4.28-5.91v-8.77h2.9v11.92Z" fill="#090a0f"/>
  <path d="M40.27,21.09c.48,1.84,1.85,2.92,4.12,2.92,2.47,0,3.44-1.06,3.44-2.59s-.77-2.3-3.98-3.08c-4.81-1.17-5.81-2.64-5.81-4.92s1.75-4.73,6.07-4.73,6.11,2.51,6.34,4.86h-2.81c-.24-1.09-1.06-2.6-3.65-2.6-2.35,0-3.06,1.13-3.06,2.23,0,1.26.69,1.88,3.77,2.61,5.1,1.21,6.12,2.91,6.12,5.42,0,2.95-2.34,5.1-6.53,5.1s-6.49-2.2-6.92-5.21h2.89Z" fill="#090a0f"/>
  <path d="M54.54,1.55h2.9v3.63h-2.9V1.55ZM54.54,9.08h2.9v16.82h-2.9V9.08Z" fill="#090a0f"/>
  <path d="M62.4,13.32c0-1.46,0-2.94-.03-4.24h2.83c.07.49.12,2.27.11,2.77.67-1.45,2.04-3.16,5.3-3.16s5.62,1.93,5.62,6.4v10.82h-2.9v-10.45c0-2.54-.99-4.25-3.56-4.25-3.17,0-4.45,2.41-4.45,5.79v8.9h-2.9v-12.58Z" fill="#090a0f"/>
  <path d="M82.89,18.02c.02,3.42,1.74,5.85,4.6,5.85,2.66,0,3.52-1.37,4.06-2.6h2.93c-.67,2.15-2.47,5.03-7.08,5.03-5.29,0-7.45-4.3-7.45-8.63,0-5,2.52-8.99,7.63-8.99,5.42,0,7.21,4.35,7.21,7.94,0,.51,0,.94-.05,1.4h-11.85ZM91.84,15.97c-.03-2.77-1.42-4.99-4.3-4.99s-4.26,2.06-4.56,4.99h8.85Z" fill="#090a0f"/>
  <path d="M100.17,21.09c.48,1.84,1.84,2.92,4.13,2.92,2.47,0,3.44-1.06,3.44-2.59s-.78-2.3-3.99-3.08c-4.8-1.17-5.81-2.64-5.81-4.92s1.75-4.73,6.07-4.73,6.12,2.51,6.33,4.86h-2.81c-.24-1.09-1.06-2.6-3.65-2.6-2.36,0-3.06,1.13-3.06,2.23,0,1.26.69,1.88,3.77,2.61,5.1,1.21,6.12,2.91,6.12,5.42,0,2.95-2.34,5.1-6.52,5.1s-6.49-2.2-6.92-5.21h2.89Z" fill="#090a0f"/>
  <path d="M116.11,21.09c.48,1.84,1.84,2.92,4.13,2.92,2.47,0,3.44-1.06,3.44-2.59s-.78-2.3-3.99-3.08c-4.8-1.17-5.81-2.64-5.81-4.92s1.75-4.73,6.07-4.73,6.12,2.51,6.33,4.86h-2.81c-.24-1.09-1.06-2.6-3.65-2.6-2.36,0-3.06,1.13-3.06,2.23,0,1.26.69,1.88,3.77,2.61,5.1,1.21,6.12,2.91,6.12,5.42,0,2.95-2.34,5.1-6.52,5.1s-6.49-2.2-6.92-5.21h2.89Z" fill="#090a0f"/>
</svg>