<?xml version="1.0" encoding="UTF-8"?>
<svg id="Layer_1" xmlns="http://www.w3.org/2000/svg" version="1.1" viewBox="0 0 108.3 108.3">
  <!-- Generator: Adobe Illustrator 30.3.0, SVG Export Plug-In . SVG Version: 2.1.3 Build 182)  -->
  <defs>
    <style>
      .st0 {
        fill: #df2f20;
      }

      .st1 {
        fill: #007ac2;
      }

      .st2 {
        fill: #fff;
      }
    </style>
  </defs>
  <path class="st1" d="M108.25,54.12c0,29.9-24.2,54.1-54.1,54.1S.05,84.02.05,54.12,24.25.02,54.15.02h0c29.9,0,54.1,24.2,54.1,54.1Z"/>
  <path class="st2" d="M99.15,45.72c-8.7.6-14.7,2-24.4,5.6-5.3,2-20.9,8-36,10.9-7.5,1.5-14.9,3.1-19.5,1.8-2.4-.5-4.4-2.3-5.1-4.7.2.1-1.8-3.4.5-7.2,2.4-3.8,10.2-5.4,17.4-4.4,14.8,2.8,30.2,10.3,35.2,12.5,7.5,3.6,15.4,6.4,23.5,8.5-7.6-4.2-12.7-7.2-22.1-11.6-5.1-2.2-20.4-9.8-36.1-12.8-7.9-1-16.5.1-20.6,5.8-3.4,6.1-.5,10.2-.9,10,1.1,3.5,3.9,6.1,7.4,6.9,6.1,1.6,13.5-.3,21.1-1.8,15.4-2.9,31.3-9.1,36.5-11.1,9.5-3.3,14.8-5.7,23.1-8.4h0Z"/>
  <path class="st0" d="M24.85,54.22c0,1.3-1,2.3-2.3,2.3s-2.3-1-2.3-2.3,1-2.3,2.3-2.3,2.3,1,2.3,2.3Z"/>
</svg>